<svg width="28" height="20" viewBox="0 0 28 20" fill="none" xmlns="http://www.w3.org/2000/svg">
<path d="M24.5538 16.3462L23.6492 17.3558L16.94 10.9375L14 13.75L11.06 10.9375L4.35078 17.3558L3.44617 16.3462L10.08 10L3.44617 3.65383L4.35078 2.64422L14 11.875L23.6492 2.64422L24.5538 3.65383L17.92 10L24.5538 16.3462ZM2.24403 0C1.00468 0 0 1.11812 0 2.49258V17.5074C0 18.884 0.99652 20 2.24403 20H25.756C26.9953 20 28 18.8819 28 17.5074V2.49258C28 1.11598 27.0035 0 25.756 0H2.24403Z" fill="#1E1E1E"/>
</svg>
